<?xml version="1.0" encoding="iso-8859-1"?>
<!-- Generator: Adobe Illustrator 16.0.0, SVG Export Plug-In . SVG Version: 6.00 Build 0)  -->
<!DOCTYPE svg PUBLIC "-//W3C//DTD SVG 1.1//EN" "http://www.w3.org/Graphics/SVG/1.1/DTD/svg11.dtd">
<svg version="1.1" id="Capa_1" xmlns="http://www.w3.org/2000/svg" xmlns:xlink="http://www.w3.org/1999/xlink" x="0px" y="0px"
	 width="953.18px" height="953.18px" viewBox="0 0 953.18 953.18" style="enable-background:new 0 0 953.18 953.18;"
	 xml:space="preserve">
<g>
	<path d="M916.41,739.336L426.14,249.065l-30.827-30.827c-7.923-7.922-20.768-7.922-28.691,0l-30.826,30.827l-86.73,86.731
		l-30.827,30.827c-7.923,7.923-7.923,20.768,0,28.691l30.827,30.827L739.336,916.41l30.826,30.828
		c7.924,7.922,20.768,7.922,28.691,0l30.826-30.828l86.73-86.73l30.828-30.826c7.922-7.924,7.922-20.77,0-28.691L916.41,739.336z
		 M380.967,294.237l107.208,107.209l-86.731,86.73L294.237,380.967L380.967,294.237z"/>
	<path d="M245.599,269.97l24.372-24.372c7.922-7.922,7.922-20.768,0-28.691l-86.631-86.631c-7.923-7.923-20.768-7.923-28.691,0
		l-24.372,24.373c-7.922,7.923-7.922,20.768,0,28.691l86.631,86.631C224.831,277.893,237.676,277.893,245.599,269.97z"/>
	<path d="M442.058,163.09c11.205,0,20.288-9.083,20.288-20.287V20.288C462.346,9.083,453.263,0,442.059,0h-34.467
		c-11.205,0-20.288,9.083-20.288,20.288v122.515c0,11.205,9.083,20.288,20.288,20.288L442.058,163.09L442.058,163.09z"/>
	<path d="M142.803,387.304l-122.515,0.001C9.083,387.305,0,396.388,0,407.592v34.467c0,11.204,9.083,20.287,20.288,20.287h122.515
		c11.205,0,20.288-9.083,20.288-20.288v-34.466C163.09,396.387,154.007,387.304,142.803,387.304z"/>
</g>
<g>
</g>
<g>
</g>
<g>
</g>
<g>
</g>
<g>
</g>
<g>
</g>
<g>
</g>
<g>
</g>
<g>
</g>
<g>
</g>
<g>
</g>
<g>
</g>
<g>
</g>
<g>
</g>
<g>
</g>
</svg>
