<?xml version="1.0" encoding="iso-8859-1"?>
<!-- Generator: Adobe Illustrator 16.0.0, SVG Export Plug-In . SVG Version: 6.00 Build 0)  -->
<!DOCTYPE svg PUBLIC "-//W3C//DTD SVG 1.1//EN" "http://www.w3.org/Graphics/SVG/1.1/DTD/svg11.dtd">
<svg version="1.1" id="Capa_1" xmlns="http://www.w3.org/2000/svg" xmlns:xlink="http://www.w3.org/1999/xlink" x="0px" y="0px"
	 width="32.001px" height="32.001px" viewBox="0 0 32.001 32.001" style="enable-background:new 0 0 32.001 32.001;"
	 xml:space="preserve">
<g>
	<path d="M31.879,8.772c-0.155-0.949-2.176-2.479-4.903-3.722c-1.935-0.881-5.868-2.358-10.5-2.378c-0.037,0-0.074,0-0.111,0
		c-2.889,0-5.361,0.45-7.275,0.982L8.885,2.21l-0.94-1.507L4.172,2.358V2.357L1.688,3.582c0,0-1.892,0.993-1.67,4.068
		c0.223,3.075,1.427,23.034,2.536,23.507c1.11,0.478,3.149-0.412,3.149-0.412l-0.518-5.802l-1.808,0.031
		c0,0-0.986-7.598-1.142-12.665c0-0.031,0-0.061-0.001-0.09c2.295-0.519,9.646-2.224,10.609-3.049
		c0.209-0.18,0.408-0.446,0.604-0.763c-0.018,0.235,0.028,0.513,0.308,0.623c0.528,0.211,0.908-1.091,0.992-1.492
		c0.085-0.4-0.274-0.559-0.274-0.559L14.6,6.358c0.567-0.949,1.227-1.754,2.089-1.722c0.644,0.026,1.121,0.984,1.615,2.046
		l0.062,0.533c0,0-0.274-0.12-0.213,0.324c0.063,0.444,0.486,1.619,0.824,1.684c0.234,0.044,0.445-0.179,0.557-0.317
		c0.244,0.297,0.519,0.524,0.827,0.637c1.091,0.395,4.605,1.372,7.173,2.088c1.168,0.324,2.121,0.59,2.476,0.696
		c0.036,1.129,0.282,9.646,0.018,11.44c-0.284,1.935-1.457,5.707-1.647,6.088c-0.188,0.379,0.43,0.689,0.604,0.222
		s1.604-5.171,1.774-6.246c0.146-2,0.466-10.436,0.271-11.483c0.229-0.09,0.404-0.233,0.486-0.375
		c0.01-0.017,0.021-0.033,0.033-0.054C31.749,11.594,32.224,10.824,31.879,8.772z M7.978,0.948l0.784,1.293l0.148,1.06l-0.932-1.49
		V0.948z M9,3.682c-1.993,0.56-3.367,1.205-3.954,1.507L4.082,3.742L7.89,1.909L9,3.682z M4.159,2.503l3.692-1.635v0.92L4.052,3.616
		L4.159,2.503z M31.331,11.788c-0.013,0.021-0.021,0.04-0.035,0.059c-0.131,0.225-0.618,0.446-1.084,0.281
		c-0.191-0.067-1.207-0.35-2.607-0.739c-2.562-0.714-6.076-1.691-7.154-2.081c-0.772-0.279-1.312-1.435-1.83-2.551
		c-0.561-1.201-1.085-2.336-1.919-2.371c-1.327-0.045-2.157,1.507-2.891,2.875c-0.387,0.719-0.751,1.397-1.128,1.722
		c-0.902,0.772-8.122,2.455-10.448,2.98C2.211,9.611,2.718,8.268,2.861,7.852C3.292,6.6,5.06,5.479,5.18,5.405
		c1.154-0.593,5.291-2.478,11.183-2.478c0.036,0,0.073,0,0.11,0c7.743,0.03,14.891,4.289,15.156,5.886
		C31.956,10.773,31.521,11.485,31.331,11.788z"/>
</g>
<g>
</g>
<g>
</g>
<g>
</g>
<g>
</g>
<g>
</g>
<g>
</g>
<g>
</g>
<g>
</g>
<g>
</g>
<g>
</g>
<g>
</g>
<g>
</g>
<g>
</g>
<g>
</g>
<g>
</g>
</svg>
