<?xml version="1.0" encoding="iso-8859-1"?>
<!-- Generator: Adobe Illustrator 16.0.0, SVG Export Plug-In . SVG Version: 6.00 Build 0)  -->
<!DOCTYPE svg PUBLIC "-//W3C//DTD SVG 1.1//EN" "http://www.w3.org/Graphics/SVG/1.1/DTD/svg11.dtd">
<svg version="1.1" id="Capa_1" xmlns="http://www.w3.org/2000/svg" xmlns:xlink="http://www.w3.org/1999/xlink" x="0px" y="0px"
	 width="50.001px" height="50.001px" viewBox="0 0 50.001 50.001" style="enable-background:new 0 0 50.001 50.001;"
	 xml:space="preserve">
<g>
	<g>
		<circle cx="38.001" cy="22.483" r="5"/>
		<path d="M44.361,14.828c-1.732-1.443-3.932-2.344-6.36-2.344c-2.41,0-4.591,0.887-6.315,2.307H5.999c-3.3,0-5.999,2.701-5.999,6v8
			c0,3.299,2.699,6,5.999,6v1.728c0,0.55,0.45,1,1,1h3.308c0.549,0,1-0.45,1-1V34.79h27.386v1.728c0,0.55,0.451,1,1,1h3.309
			c0.55,0,1-0.45,1-1V34.79c3.3,0,5.999-2.701,5.999-6v-8C50,17.615,47.493,15.019,44.361,14.828z M7.012,28.79
			c0,0.551-0.762,1-1.692,1c-0.926,0-1.689-0.449-1.689-1v-8c0-0.55,0.764-1,1.689-1c0.931,0,1.692,0.45,1.692,1V28.79z
			 M12.339,28.79c0,0.551-0.757,1-1.688,1c-0.928,0-1.689-0.449-1.689-1v-8c0-0.55,0.762-1,1.689-1c0.932,0,1.688,0.45,1.688,1
			V28.79z M17.67,28.79c0,0.551-0.764,1-1.689,1c-0.931,0-1.692-0.449-1.692-1v-8c0-0.55,0.762-1,1.692-1
			c0.926,0,1.689,0.45,1.689,1V28.79z M38.001,29.483c-3.864,0-7.001-3.135-7.001-7c0-3.866,3.137-7,7.001-7
			c3.865,0,7.001,3.134,7.001,7C45.002,26.349,41.866,29.483,38.001,29.483z"/>
	</g>
</g>
<g>
</g>
<g>
</g>
<g>
</g>
<g>
</g>
<g>
</g>
<g>
</g>
<g>
</g>
<g>
</g>
<g>
</g>
<g>
</g>
<g>
</g>
<g>
</g>
<g>
</g>
<g>
</g>
<g>
</g>
</svg>
