<?xml version="1.0" encoding="iso-8859-1"?>
<!-- Generator: Adobe Illustrator 18.1.1, SVG Export Plug-In . SVG Version: 6.00 Build 0)  -->
<svg version="1.1" id="Capa_1" xmlns="http://www.w3.org/2000/svg" xmlns:xlink="http://www.w3.org/1999/xlink" x="0px" y="0px"
	 viewBox="0 0 522.862 522.862" style="enable-background:new 0 0 522.862 522.862;" xml:space="preserve">
<g>
	<path d="M407.702,238.594h-24.194c-3.75,0-4.46-2.89-4.896-4.263c-3.144-9.896-12.415-17.089-23.34-17.089h-39.798
		c-10.273,0-19.086,6.36-22.714,15.351c-0.765,1.895-2.335,6.001-6.168,6.001h-76.668c0,0-5.428,0.799-5.428-6.077
		c0-5.213,0-20.854,0-20.854c0-11.028-8.972-20-20-20c0,0-5.331,0.604-5.331-5.271c0-37.301,0.058-177.033,0.058-177.033
		c0-5.248-4.075-9.359-9.277-9.359c-0.452,0-0.911,0.032-1.363,0.095l-67.43,9.373c-5.194,0.723-9.264,5.397-9.264,10.641v11
		c0,5.34,4.335,9.968,9.664,10.315l41.856,2.729c0,0,5.756,0.24,5.756,6.865c0,33.844,0,99.908,0,135.375
		c0,5.125-3.818,5.306-4.479,5.371c-10.09,1.01-17.993,9.55-17.993,19.9v50.201v12.466v225.261c0,12.831,10.439,23.271,23.27,23.271
		h256.46c12.831,0,23.27-10.439,23.27-23.243l1.278-237.754C430.973,249.034,420.533,238.594,407.702,238.594z M278.833,489.331
		c-57.897,0-105-47.103-105-105c0-57.897,47.102-105,105-105s105,47.103,105,105C383.833,442.228,336.731,489.331,278.833,489.331z"
		/>
	<path d="M278.833,299.331c-46.869,0-85,38.131-85,85c0,46.869,38.131,85,85,85s85-38.131,85-85
		C363.833,337.461,325.702,299.331,278.833,299.331z"/>
</g>
<g>
</g>
<g>
</g>
<g>
</g>
<g>
</g>
<g>
</g>
<g>
</g>
<g>
</g>
<g>
</g>
<g>
</g>
<g>
</g>
<g>
</g>
<g>
</g>
<g>
</g>
<g>
</g>
<g>
</g>
</svg>
